<svg width="1941" height="1941" viewBox="0 0 1941 1941" fill="none" xmlns="http://www.w3.org/2000/svg">
<path d="M1866.58 595.654C1830.44 509.784 1782.38 430.475 1723.38 358.969C1545.5 139.985 1274.15 0 970.112 0C434.318 0 0 434.512 0 970.5C0 979.157 0.116446 987.814 0.349366 996.432C2.48447 1086.14 16.9255 1173.84 43.4007 1258.39C44.0995 1260.64 44.8371 1262.85 45.5747 1265.1C46.9334 1269.41 48.3309 1273.72 49.7673 1277.99C178.3 1663.24 541.772 1941 970.112 1941C1461.42 1941 1867.36 1575.59 1931.37 1101.63C1931.49 1100.86 1931.61 1100.08 1931.68 1099.3C1932.07 1096.43 1932.42 1093.52 1932.81 1090.65C1938.2 1049.54 1941 1007.84 1941 965.842C1941 837.503 1915.96 712.968 1866.58 595.654ZM858.815 405.475C889.522 405.475 914.405 438.821 914.405 479.932C914.405 521.042 889.522 554.388 858.815 554.388C828.108 554.388 803.225 521.042 803.225 479.932C803.225 438.782 828.108 405.475 858.815 405.475ZM1395 1443.09V1443.52C1394.96 1445.23 1394.96 1446.9 1394.92 1448.68C1394.84 1451.83 1394.72 1454.93 1394.61 1458.04C1390.49 1549.11 1358.97 1635.41 1303.46 1707.58C1248.84 1778.58 1175.28 1830.67 1090.69 1858.27C1082.11 1861.07 1073.37 1863.63 1064.87 1865.84C1061.69 1866.66 1034.55 1872.56 1031.37 1873.14C1031.29 1873.14 981.137 1879.12 962.115 1879.78C961.261 1879.82 960.484 1879.82 959.747 1879.86C955.943 1879.9 952.138 1879.9 948.334 1879.86C948.295 1879.86 948.217 1879.86 948.178 1879.86C707.3 1878.34 481.096 1783.35 311.259 1612.43C141.344 1441.39 47.7486 1214.37 47.7486 973.217C47.7486 743.054 134.084 523.604 290.801 355.319C393.363 245.187 519.8 163.51 659.008 115.645C632.572 135.754 608.115 158.58 586.027 183.968C528.922 249.535 490.607 328.961 474.342 413.549C450.467 474.109 417.509 530.087 377.175 579.815C328.844 625.507 302.136 680.088 302.136 737.852C302.136 815.492 349.885 887.619 436.647 940.919C506.174 983.66 594.528 1010.33 689.831 1017.9L698.061 941.773C701.71 907.961 739.638 889.832 768.209 908.233L885.64 983.854C918.287 976.245 956.098 971.897 996.393 971.897C1055.79 971.897 1109.75 981.331 1149.77 996.742L1239.06 939.25C1267.63 920.849 1305.56 938.978 1309.2 972.79L1315.18 1028.26L1318.52 1059.01C1327.29 1140.22 1346.32 1219.84 1372.25 1297.29C1386.57 1340.03 1394.53 1385.68 1395.04 1433C1395.04 1433.16 1395.04 1433.31 1395.04 1433.43C1395.07 1434.9 1395.07 1436.34 1395.07 1437.82C1395.04 1439.56 1395.04 1441.35 1395 1443.09ZM424.885 775.701C425.312 774.576 425.739 773.45 426.127 772.324C430.009 761.144 431.251 752.137 431.329 740.802C431.329 727.448 431.329 714.094 431.368 700.74C393.091 694.373 365.335 675.468 365.335 653.108C365.335 625.545 407.571 603.185 459.668 603.185C511.764 603.185 554 625.545 554 653.108C554 680.67 511.764 703.03 459.668 703.03C458.154 703.03 456.678 702.953 455.164 702.914C455.164 703.613 455.164 704.311 455.164 705.01C455.164 716.85 455.164 728.651 455.126 740.492C455.126 740.53 455.126 740.53 455.126 740.569C455.126 740.686 455.126 740.763 455.126 740.88C455.126 745.538 455.126 750.235 455.126 754.894C455.126 754.932 455.126 754.971 455.126 755.049C455.126 755.165 455.164 755.243 455.164 755.321C455.553 787.037 481.251 813.395 513.239 813.395C545.188 813.395 570.926 787.037 571.314 755.321C571.508 739.948 595.344 739.987 595.149 755.321C594.917 774.808 588.201 793.015 575.856 808.038C554.583 833.97 516.811 844.141 485.405 832.34C466.422 825.197 451.244 811.726 441.849 794.801C431.64 812.386 413.86 825.973 392.47 821.509C367.082 816.229 353.573 787.503 349.108 764.599C347.866 758.271 350.816 751.749 357.416 749.925C363.278 748.294 370.847 751.943 372.09 758.271C372.788 761.804 373.604 765.297 374.652 768.714C375.079 770.15 375.545 771.586 376.049 772.984C376.205 773.411 377.02 775.507 377.059 775.662C378.184 778.302 379.504 780.864 380.979 783.349C381.639 784.475 382.338 785.6 383.076 786.726C383.464 787.27 383.852 787.813 384.24 788.357C385.754 790.181 387.346 791.928 389.093 793.52C389.287 793.714 390.18 794.413 390.607 794.762C391.073 795.072 391.888 795.616 392.082 795.771C393.091 796.392 394.178 796.858 395.188 797.479C395.421 797.557 395.615 797.635 395.848 797.712C396.702 797.984 397.556 798.217 398.448 798.45C398.72 798.527 398.875 798.566 399.031 798.605C399.108 798.605 399.147 798.605 399.264 798.605C400.273 798.605 401.321 798.644 402.33 798.644C402.486 798.644 402.641 798.644 402.796 798.605C404.194 798.178 405.591 797.829 406.95 797.402C407.299 797.246 407.998 796.936 408.464 796.664C409.24 796.237 409.978 795.732 410.754 795.266C411.026 795.072 411.298 794.878 411.57 794.684C412.268 794.063 413.045 793.442 413.743 792.782C414.559 792.006 415.335 791.19 416.112 790.336C416.306 790.142 417.004 789.327 417.393 788.9C417.703 788.434 418.79 786.998 418.945 786.726C419.528 785.833 420.11 784.94 420.653 784.009C421.896 781.951 423.021 779.816 424.07 777.642C424.303 777.138 424.535 776.594 424.807 776.089C424.497 776.555 423.992 777.953 424.885 775.701ZM572.246 522.944C548.022 522.944 528.418 496.663 528.418 464.21C528.418 431.756 548.061 405.475 572.246 405.475C596.469 405.475 616.073 431.756 616.073 464.21C616.112 496.663 596.469 522.944 572.246 522.944ZM1457.23 790.647C1441.04 798.916 1422.17 806.874 1404.86 812.231C1386.73 818.481 1368.02 822.829 1348.65 824.731C1156.6 842.161 1122.83 596.159 1135.8 452.486C1144.65 551.244 1168.21 708.504 1254.16 768.326C1310.56 806.913 1383.66 785.096 1439.76 756.757C1609.9 672.362 1633.16 441.616 1525.7 297.128C1521.94 292.509 1518.21 287.85 1514.48 283.153C1551.83 314.52 1579.43 356.368 1596.59 401.942C1652.1 548.798 1601.36 717.976 1457.23 790.647Z" fill="#7678EE"/>
<path d="M384.083 788.238C383.465 787.465 383.812 787.89 384.083 788.238V788.238Z" fill="#7678EE"/>
<path d="M878.264 1263.98C899.939 1263.98 917.511 1240.43 917.511 1211.38C917.511 1182.33 899.939 1158.78 878.264 1158.78C856.588 1158.78 839.017 1182.33 839.017 1211.38C839.017 1240.43 856.588 1263.98 878.264 1263.98Z" fill="#7678EE"/>
<path d="M1175.59 1158.78C1153.89 1158.78 1136.34 1182.34 1136.34 1211.38C1136.34 1240.42 1153.93 1263.98 1175.59 1263.98C1197.25 1263.98 1214.83 1240.42 1214.83 1211.38C1214.83 1182.3 1197.29 1158.78 1175.59 1158.78Z" fill="#7678EE"/>
<path d="M1086.22 1303.69C1071.94 1304.55 1056.18 1292.94 1054.58 1278.3C1054.47 1277.14 1054.2 1273.84 1054.66 1273.06C1054.93 1272.6 1062.19 1267.43 1063.51 1266.23C1071.98 1258.39 1085.17 1243.06 1068.4 1236.3C1058.16 1232.19 1024.15 1231.95 1014.37 1236.92C999.654 1244.41 1013.01 1259.24 1020.58 1266.19C1022.32 1267.78 1029.08 1272.29 1029.86 1273.57C1030.48 1274.62 1030.28 1277.64 1030.17 1279C1029.12 1293.37 1010.48 1305.75 996.742 1304.12C991.424 1303.5 988.939 1300.08 983.505 1303.38C975.469 1308.23 980.671 1318.29 986.688 1322.52C1002.64 1333.7 1024.58 1324.03 1036.92 1312C1038.24 1310.68 1039.91 1308.23 1041.04 1306.64L1042.36 1306.25C1050.62 1319.49 1072.4 1330.36 1087.85 1326.44C1095.5 1324.5 1109.09 1314.56 1102.84 1305.63C1098.06 1298.76 1092.28 1303.34 1086.22 1303.69Z" fill="#7678EE"/>
</svg>
