<svg width="6586" height="1537" viewBox="0 0 6586 1537" fill="none" xmlns="http://www.w3.org/2000/svg">
<path d="M1477.93 471.636C1449.32 403.645 1411.26 340.848 1364.54 284.23C1223.71 110.839 1008.85 0 768.12 0C343.887 0 0 344.045 0 768.438C0 775.292 0.0922001 782.146 0.276623 788.97C1.96716 860.005 13.4014 929.441 34.3641 996.387C34.9173 998.17 35.5014 999.922 36.0854 1001.7C37.1612 1005.12 38.2677 1008.53 39.4049 1011.91C141.175 1316.95 428.936 1536.88 768.12 1536.88C1157.13 1536.88 1478.55 1247.54 1529.23 872.269C1529.32 871.654 1529.42 871.039 1529.48 870.424C1529.79 868.15 1530.06 865.845 1530.37 863.57C1534.64 831.019 1536.85 798.007 1536.85 764.749C1536.85 663.131 1517.03 564.525 1477.93 471.636ZM679.966 321.053C704.279 321.053 723.982 347.457 723.982 380.008C723.982 412.559 704.279 438.962 679.966 438.962C655.653 438.962 635.951 412.559 635.951 380.008C635.981 347.426 655.684 321.053 679.966 321.053ZM1104.54 1142.64V1142.97C1104.51 1144.33 1104.51 1145.65 1104.48 1147.06C1104.41 1149.55 1104.32 1152.01 1104.23 1154.47C1100.97 1226.58 1076.01 1294.91 1032.06 1352.05C988.813 1408.27 930.566 1449.52 863.59 1471.37C856.797 1473.59 849.881 1475.62 843.149 1477.37C840.629 1478.01 819.144 1482.68 816.623 1483.15C816.562 1483.15 776.849 1487.88 761.788 1488.4C761.112 1488.43 760.497 1488.43 759.913 1488.46C756.901 1488.49 753.889 1488.49 750.877 1488.46C750.846 1488.46 750.784 1488.46 750.754 1488.46C560.03 1487.26 380.925 1412.05 246.45 1276.71C111.883 1141.31 37.7759 961.561 37.7759 770.589C37.7759 588.346 106.135 414.587 230.221 281.34C311.428 194.138 411.539 129.466 521.762 91.567C500.83 107.489 481.466 125.563 463.977 145.665C418.762 197.581 388.425 260.47 375.546 327.447C356.643 375.397 330.547 419.721 298.611 459.095C260.343 495.273 239.196 538.49 239.196 584.228C239.196 645.703 277.003 702.813 345.7 745.016C400.75 778.858 470.708 799.974 546.168 805.968L552.684 745.692C555.573 718.919 585.603 704.565 608.226 719.135L701.206 779.011C727.055 772.987 756.993 769.544 788.898 769.544C835.926 769.544 878.651 777.013 910.341 789.216L981.036 743.694C1003.66 729.124 1033.69 743.479 1036.58 770.251L1041.31 814.175L1043.95 838.519C1050.9 902.822 1065.96 965.864 1086.5 1027.19C1097.84 1061.03 1104.14 1097.18 1104.54 1134.64C1104.54 1134.77 1104.54 1134.89 1104.54 1134.98C1104.57 1136.15 1104.57 1137.29 1104.57 1138.46C1104.57 1139.84 1104.54 1141.25 1104.54 1142.64ZM336.387 614.197C336.725 613.305 337.063 612.414 337.37 611.523C340.444 602.67 341.428 595.539 341.489 586.564C341.489 575.99 341.489 565.416 341.52 554.843C311.213 549.802 289.236 534.832 289.236 517.128C289.236 495.304 322.678 477.599 363.927 477.599C405.176 477.599 438.618 495.304 438.618 517.128C438.618 538.951 405.176 556.656 363.927 556.656C362.729 556.656 361.561 556.595 360.362 556.564C360.362 557.117 360.362 557.67 360.362 558.224C360.362 567.599 360.362 576.943 360.331 586.318C360.331 586.349 360.331 586.349 360.331 586.379C360.331 586.471 360.331 586.533 360.331 586.625C360.331 590.314 360.331 594.033 360.331 597.721C360.331 597.752 360.331 597.783 360.331 597.844C360.331 597.937 360.362 597.998 360.362 598.06C360.669 623.172 381.017 644.043 406.345 644.043C431.641 644.043 452.02 623.172 452.327 598.06C452.481 585.888 471.353 585.918 471.2 598.06C471.015 613.49 465.698 627.906 455.923 639.801C439.079 660.334 409.172 668.387 384.306 659.043C369.276 653.387 357.257 642.721 349.819 629.32C341.735 643.244 327.658 654.002 310.721 650.467C290.619 646.287 279.923 623.541 276.388 605.406C275.404 600.396 277.74 595.232 282.966 593.787C287.607 592.496 293.601 595.385 294.584 600.396C295.138 603.193 295.783 605.959 296.613 608.664C296.951 609.801 297.32 610.939 297.72 612.045C297.843 612.383 298.488 614.043 298.519 614.166C299.41 616.256 300.455 618.285 301.623 620.252C302.146 621.143 302.699 622.035 303.283 622.926C303.59 623.357 303.898 623.787 304.205 624.217C305.404 625.662 306.664 627.045 308.047 628.305C308.201 628.459 308.908 629.012 309.246 629.289C309.615 629.535 310.26 629.965 310.414 630.088C311.213 630.58 312.074 630.949 312.873 631.44C313.057 631.502 313.211 631.563 313.395 631.625C314.072 631.84 314.748 632.024 315.455 632.209C315.67 632.27 315.793 632.301 315.916 632.332C315.977 632.332 316.008 632.332 316.1 632.332C316.9 632.332 317.729 632.363 318.529 632.363C318.652 632.363 318.774 632.363 318.897 632.332C320.004 631.994 321.11 631.717 322.186 631.379C322.463 631.256 323.016 631.01 323.385 630.795C324 630.457 324.584 630.057 325.199 629.688C325.414 629.535 325.629 629.381 325.844 629.227C326.397 628.736 327.012 628.244 327.565 627.721C328.211 627.107 328.826 626.461 329.44 625.785C329.594 625.631 330.147 624.986 330.455 624.647C330.701 624.279 331.561 623.141 331.684 622.926C332.145 622.219 332.606 621.512 333.037 620.775C334.02 619.145 334.911 617.455 335.741 615.734C335.926 615.334 336.11 614.904 336.325 614.504C336.11 614.873 335.711 615.98 336.387 614.197ZM453.096 414.065C433.916 414.065 418.393 393.256 418.393 367.559C418.393 341.862 433.946 321.053 453.096 321.053C472.276 321.053 487.798 341.862 487.798 367.559C487.798 393.256 472.276 414.065 453.096 414.065ZM1153.81 626.031C1140.99 632.578 1126.05 638.879 1112.34 643.121C1097.99 648.069 1083.18 651.512 1067.84 653.018C915.781 666.819 889.04 472.036 899.306 358.276C906.314 436.473 924.972 560.99 993.024 608.357C1037.68 638.91 1095.56 621.635 1139.98 599.197C1274.7 532.374 1293.11 349.67 1208.03 235.265C1205.05 231.607 1202.1 227.919 1199.15 224.199C1228.72 249.035 1250.57 282.17 1264.16 318.256C1308.11 434.536 1267.94 568.49 1153.81 626.031Z" fill="#7678EE"/>
<path d="M304.113 624.125C303.59 623.51 303.898 623.848 304.113 624.125V624.125Z" fill="#7678EE"/>
<path d="M695.365 1000.81C712.528 1000.81 726.44 982.166 726.44 959.164C726.44 936.161 712.528 917.514 695.365 917.514C678.203 917.514 664.29 936.161 664.29 959.164C664.29 982.166 678.203 1000.81 695.365 1000.81Z" fill="#7678EE"/>
<path d="M930.811 917.514C913.629 917.514 899.736 936.172 899.736 959.164C899.736 982.155 913.66 1000.81 930.811 1000.81C947.963 1000.81 961.887 982.155 961.887 959.164C961.887 936.141 947.963 917.514 930.811 917.514Z" fill="#7678EE"/>
<path d="M860.054 1032.26C848.743 1032.93 836.264 1023.74 835.004 1012.15C834.911 1011.23 834.696 1008.62 835.065 1008.01C835.28 1007.64 841.028 1003.55 842.073 1002.6C848.774 996.386 859.224 984.245 845.946 978.897C837.831 975.639 810.906 975.454 803.16 979.389C791.511 985.321 802.084 997.063 808.078 1002.56C809.461 1003.83 814.809 1007.39 815.424 1008.4C815.916 1009.23 815.762 1011.63 815.67 1012.71C814.84 1024.08 800.086 1033.89 789.205 1032.6C784.994 1032.1 783.027 1029.4 778.724 1032.01C772.361 1035.85 776.48 1043.81 781.244 1047.16C793.877 1056.02 811.244 1048.36 821.018 1038.84C822.063 1037.79 823.385 1035.85 824.276 1034.59L825.321 1034.29C831.868 1044.77 849.112 1053.37 861.345 1050.27C867.401 1048.73 878.158 1040.86 873.21 1033.79C869.398 1028.35 864.819 1031.98 860.054 1032.26Z" fill="#7678EE"/>
<path d="M2200.19 233.267C2263.94 233.267 2322.34 240.183 2375.49 254.045C2428.6 267.908 2474.31 288.687 2512.67 316.412C2550.99 344.137 2580.56 378.563 2601.34 419.628C2622.12 460.755 2632.51 508.552 2632.51 563.049C2632.51 619.391 2621.87 669.063 2600.64 712.003C2579.36 754.944 2549.37 790.999 2510.58 820.076C2471.79 849.185 2425.37 871.131 2371.34 885.885C2317.3 900.67 2257.95 908.047 2193.28 908.047H2078.26V1151.92C2078.26 1173.19 2074.11 1192.8 2065.78 1210.81C2057.45 1228.82 2046.38 1244.53 2032.52 1257.93C2018.66 1271.33 2002.25 1281.97 1983.34 1289.81C1964.41 1297.68 1943.84 1301.58 1921.68 1301.58C1899.52 1301.58 1878.96 1297.68 1860.02 1289.81C1841.09 1281.97 1824.71 1271.33 1810.85 1257.93C1796.98 1244.56 1785.92 1228.82 1777.59 1210.81C1769.29 1192.8 1765.11 1173.19 1765.11 1151.92V382.897C1765.11 362.58 1769.26 343.184 1777.59 324.711C1785.92 306.238 1796.98 290.316 1810.85 276.914C1824.71 263.543 1841.09 252.908 1860.02 245.039C1878.96 237.201 1899.52 233.267 1921.68 233.267H2200.19ZM2175.23 697.434C2220.48 697.434 2256.75 688.151 2284.01 669.555C2311.25 650.989 2324.89 622.619 2324.89 584.504C2324.89 545.498 2311.95 516.451 2286.1 497.394C2260.22 478.337 2223.74 468.808 2176.65 468.808H2078.26V697.434H2175.23Z" fill="#7678EE"/>
<path d="M3429.22 1158.87C3429.22 1181.06 3425.07 1201.84 3416.74 1221.23C3408.41 1240.63 3397.09 1257.26 3382.8 1271.12C3368.48 1284.98 3351.85 1296.05 3332.92 1304.38C3313.98 1312.71 3293.42 1316.86 3271.26 1316.86C3238.92 1316.86 3209.11 1307.36 3181.9 1288.45C3154.64 1269.52 3133.62 1245.27 3118.86 1215.7C3089.29 1245.27 3056.28 1268.6 3019.8 1285.66C2983.28 1302.75 2941.51 1311.29 2894.39 1311.29C2858.37 1311.29 2825.32 1306.44 2795.32 1296.75C2765.29 1287.04 2739.41 1272.99 2717.74 1254.49C2696.04 1236.02 2679.17 1212.93 2667.18 1185.21C2655.16 1157.48 2649.17 1125.64 2649.17 1089.58C2649.17 1018.46 2674.8 963.498 2726.07 924.707C2777.34 885.916 2847.3 866.521 2935.98 866.521C2951.68 866.521 2968.74 867.443 2987.25 869.287C3005.72 871.162 3023.49 873.437 3040.61 876.203C3057.7 878.969 3073.86 882.443 3089.11 886.592C3104.35 890.742 3117.05 894.676 3127.22 898.365V873.437C3127.22 835.568 3115.21 806.921 3091.2 787.525C3067.16 768.13 3028.37 758.417 2974.8 758.417C2950.76 758.417 2927 760.507 2903.43 764.657C2879.88 768.806 2853.76 770.896 2825.14 770.896C2797.41 770.896 2772.49 762.382 2750.32 745.261C2728.16 728.171 2717.07 704.872 2717.07 675.272C2717.07 655.877 2723.52 637.649 2736.46 620.529C2749.4 603.439 2766.46 592.127 2787.73 586.564C2822.83 577.342 2860.24 569.935 2899.95 564.402C2939.67 558.869 2983.1 556.072 3030.19 556.072C3109.61 556.072 3174.74 563.695 3225.55 578.941C3276.33 594.187 3318.38 617.977 3351.63 650.313C3379.36 678.038 3399.19 709.883 3411.2 745.907C3423.19 781.931 3429.22 826.285 3429.22 878.939V1158.87ZM3021.86 1151.92C3052.35 1151.92 3077.98 1141.07 3098.76 1119.37C3119.54 1097.67 3129.93 1067.42 3129.93 1028.6V991.192C3117.91 986.581 3104.51 982.862 3089.75 980.096C3074.97 977.329 3060.65 975.946 3046.81 975.946C3011.71 975.946 2985.16 984.737 2967.14 1002.26C2949.13 1019.81 2940.13 1041.54 2940.13 1067.39C2940.13 1094.19 2947.96 1114.97 2963.67 1129.76C2979.35 1144.54 2998.74 1151.92 3021.86 1151.92Z" fill="#7678EE"/>
<path d="M3796.4 891.418L3861.53 676.655C3871.68 643.397 3890.86 616.379 3919.04 595.6C3947.2 574.822 3980.21 564.433 4018.11 564.433C4055.05 564.433 4087.85 574.822 4116.5 595.6C4145.11 616.379 4164.51 643.397 4174.68 676.655L4241.2 894.215C4244.89 877.586 4249.53 859.359 4255.06 839.472C4260.59 819.615 4266.37 799.298 4272.36 778.519C4278.36 757.741 4283.92 737.638 4288.99 718.243C4294.06 698.848 4298.89 680.836 4303.53 664.207C4309.06 634.668 4324.31 611.338 4349.27 594.217C4374.23 577.127 4401.92 568.582 4432.41 568.582C4451.81 568.582 4469.6 572.271 4485.77 579.678C4501.91 587.086 4516.02 596.768 4528.04 608.787C4540.02 620.805 4549.52 634.668 4556.44 650.344C4563.35 666.051 4566.83 682.219 4566.83 698.848C4566.83 703.489 4565.9 710.405 4564.06 719.626L4561.29 733.489L4419.96 1181.06C4410.71 1216.16 4390.64 1245.48 4359.69 1269.03C4328.74 1292.57 4293.39 1304.35 4253.68 1304.35C4215.78 1304.35 4181.84 1292.57 4151.84 1269.03C4121.81 1245.48 4100.79 1216.16 4088.8 1181.06L4018.14 959.348L3941.94 1182.44C3929.92 1217.54 3909.14 1246.65 3879.58 1269.74C3850.01 1292.85 3816.29 1304.38 3778.42 1304.38C3738.71 1304.38 3704.07 1292.6 3674.5 1269.06C3644.93 1245.51 3624.15 1215.73 3612.13 1179.67L3473.57 736.286C3469.88 725.19 3468.04 713.663 3468.04 701.645C3468.04 684.094 3471.51 667.495 3478.43 651.758C3485.34 636.051 3495.05 621.973 3507.5 609.494C3519.98 597.014 3534.27 587.117 3550.44 579.709C3566.58 572.332 3584.41 568.613 3603.8 568.613C3633.34 568.613 3660.39 578.326 3684.86 597.721C3709.32 617.117 3726.2 640.231 3735.42 667.004L3796.4 891.418Z" fill="#7678EE"/>
<path d="M5337.19 454.946C5355.66 425.407 5380.84 401.831 5412.71 384.28C5444.59 366.729 5478.98 357.938 5515.93 357.938C5544.54 357.938 5571.81 363.256 5597.69 373.86C5623.54 384.495 5645.94 399.034 5664.88 417.507C5683.81 436.011 5698.84 457.466 5709.91 481.933C5721 506.431 5726.54 532.496 5726.54 560.222V1146.32C5726.54 1166.64 5722.39 1185.82 5714.06 1203.83C5705.73 1221.85 5694.66 1237.55 5680.8 1250.95C5666.94 1264.36 5650.52 1274.99 5631.62 1282.83C5612.69 1290.7 5592.58 1294.6 5571.35 1294.6C5549.18 1294.6 5528.62 1290.7 5509.69 1282.83C5490.75 1274.99 5474.34 1264.36 5460.51 1250.95C5446.64 1237.58 5435.58 1221.85 5427.25 1203.83C5418.92 1185.82 5414.77 1166.67 5414.77 1146.32V806.921C5394.36 836.49 5374.44 865.599 5355.02 894.215C5338.36 918.252 5320.96 943.641 5302.89 970.414C5284.81 997.217 5269.29 1020.76 5256.35 1041.08C5247.99 1054.02 5236.89 1064.19 5223 1071.57C5209.11 1078.98 5193.37 1082.67 5175.76 1082.67C5141.46 1082.67 5114.59 1069.3 5095.17 1042.49L4936.75 831.88V1149.18C4936.75 1169.5 4932.84 1188.47 4925.01 1205.99C4917.2 1223.54 4906.38 1239.03 4892.61 1252.4C4878.81 1265.8 4862.49 1276.19 4843.64 1283.57C4824.77 1290.98 4804.79 1294.66 4783.65 1294.66C4762.5 1294.66 4742.73 1290.98 4724.32 1283.57C4705.91 1276.19 4689.84 1266.02 4676.03 1253.08C4662.23 1240.14 4651.45 1224.92 4643.64 1207.34C4635.83 1189.79 4631.93 1170.85 4631.93 1150.54V560.283C4631.93 532.558 4637.46 506.247 4648.56 481.319C4659.65 456.39 4674.9 434.905 4694.29 416.893C4713.69 398.881 4736.06 384.557 4761.48 373.952C4786.87 363.348 4813.89 358.03 4842.54 358.03C4876.72 358.03 4910.19 366.575 4942.99 383.666C4975.75 400.756 5001.88 424.546 5021.27 455.038L5179.23 704.442C5181.08 700.754 5183.84 696.143 5187.56 690.579C5190.33 685.969 5193.8 680.436 5197.95 673.95C5202.1 667.496 5206.96 659.627 5212.49 650.406L5337.19 454.946Z" fill="#7678EE"/>
<path d="M6386.09 1066.01C6393.47 1062.32 6401.55 1059.77 6410.35 1058.38C6419.11 1057 6427.19 1056.29 6434.6 1056.29C6449.35 1056.29 6463.67 1059.31 6477.54 1065.3C6491.4 1071.32 6503.39 1080.79 6513.56 1093.7C6520.02 1102.95 6525.55 1112.88 6530.19 1123.49C6534.8 1134.12 6537.11 1144.51 6537.11 1154.65C6537.11 1168.52 6533.63 1182.38 6526.72 1196.21C6519.8 1210.04 6509.84 1222.09 6496.93 1232.24C6463.67 1256.27 6425.35 1275.42 6381.91 1289.75C6338.48 1304.07 6288.13 1311.23 6230.87 1311.23C6168.05 1311.23 6111.24 1302.22 6060.43 1284.21C6009.63 1266.2 5965.73 1240.81 5928.79 1208.01C5891.84 1175.25 5863.44 1135.75 5843.58 1089.55C5823.7 1043.38 5813.8 992.114 5813.8 935.742C5813.8 880.322 5823.51 829.298 5842.91 782.638C5862.3 736.009 5889.32 695.344 5923.96 660.703C5958.6 626.061 5999.7 599.043 6047.28 579.648C6094.86 560.252 6146.81 550.539 6203.15 550.539C6256.72 550.539 6304.76 557.24 6347.24 570.642C6389.72 584.043 6426.45 602.762 6457.4 626.768C6488.36 650.805 6514.21 679.422 6534.98 712.68C6555.76 745.938 6571.22 782.423 6581.4 822.136C6584.16 835.076 6585.55 846.173 6585.55 855.394C6585.55 874.789 6581.61 893.047 6573.77 910.137C6565.91 927.227 6555.52 942.012 6542.61 954.492C6529.67 966.971 6514.42 976.899 6496.87 984.276C6479.32 991.684 6460.35 995.372 6440.07 995.372H6095.11C6108.02 1034.16 6128.58 1063.27 6156.76 1082.67C6184.95 1102.06 6217.04 1111.78 6253.06 1111.78C6269.69 1111.78 6285.4 1109.93 6300.18 1106.24C6314.94 1102.55 6331.57 1096.1 6350.07 1086.85L6386.09 1066.01ZM6322.34 876.203C6317.7 834.646 6304.79 802.771 6283.55 780.579C6262.28 758.417 6235.97 747.321 6204.56 747.321C6174.99 747.321 6150.52 758.878 6131.13 781.962C6111.73 805.077 6099.26 836.49 6093.72 876.172H6322.34V876.203Z" fill="#7678EE"/>
</svg>
