<svg width="3960" height="890" viewBox="0 0 3960 890" fill="none" xmlns="http://www.w3.org/2000/svg">
<path d="M357.358 1.52588e-05C409.719 1.52588e-05 457.686 5.68037 501.337 17.0663C544.962 28.4523 582.503 45.5187 614.01 68.2906C645.492 91.0626 669.778 119.338 686.845 153.067C703.911 186.846 712.444 226.104 712.444 270.865C712.444 317.141 703.709 357.939 686.264 393.208C668.794 428.476 644.154 458.09 612.293 481.973C580.432 505.881 542.311 523.906 497.928 536.025C453.546 548.168 404.796 554.227 351.678 554.227H257.207V754.529C257.207 772 253.799 788.107 246.957 802.901C240.115 817.695 231.027 830.596 219.641 841.603C208.255 852.61 194.773 861.345 179.247 867.783C163.696 874.246 146.806 877.452 128.604 877.452C110.401 877.452 93.5115 874.246 77.9599 867.783C62.4083 861.345 48.9521 852.61 37.5662 841.603C26.1802 830.621 17.0916 817.695 10.2499 802.901C3.43346 788.107 0 772 0 754.529V122.898C0 106.21 3.40821 90.28 10.2499 75.1071C17.0916 59.9342 26.1802 46.8567 37.5662 35.8494C48.9521 24.8674 62.4083 16.1323 77.9599 9.66927C93.5115 3.23152 110.401 1.52588e-05 128.604 1.52588e-05H357.358ZM336.858 381.241C374.021 381.241 403.811 373.617 426.204 358.343C448.572 343.094 459.781 319.792 459.781 288.487C459.781 256.45 449.153 232.592 427.921 216.94C406.664 201.287 376.697 193.461 338.02 193.461H257.207V381.241H336.858Z" fill="#7678EE"/>
<path d="M1366.82 760.235C1366.82 778.463 1363.41 795.529 1356.57 811.46C1349.73 827.39 1340.44 841.048 1328.7 852.434C1316.94 863.82 1303.28 872.908 1287.73 879.75C1272.17 886.592 1255.29 890 1237.08 890C1210.52 890 1186.04 882.199 1163.69 866.673C1141.3 851.121 1124.03 831.202 1111.91 806.915C1087.63 831.202 1060.51 850.364 1030.54 864.375C1000.55 878.412 966.243 885.43 927.541 885.43C897.952 885.43 870.813 881.442 846.173 873.489C821.507 865.511 800.25 853.974 782.452 838.776C764.628 823.603 750.768 804.643 740.922 781.871C731.051 759.099 726.127 732.944 726.127 703.331C726.127 644.911 747.183 599.771 789.293 567.911C831.404 536.05 888.864 520.12 961.699 520.12C974.599 520.12 988.611 520.877 1003.81 522.392C1018.98 523.932 1033.57 525.8 1047.64 528.072C1061.67 530.345 1074.95 533.197 1087.47 536.606C1100 540.014 1110.42 543.245 1118.78 546.275V525.8C1118.78 494.697 1108.91 471.168 1089.19 455.237C1069.45 439.307 1037.59 431.329 993.584 431.329C973.842 431.329 954.327 433.046 934.963 436.454C915.624 439.863 894.165 441.579 870.661 441.579C847.889 441.579 827.415 434.586 809.212 420.524C791.01 406.487 781.896 387.351 781.896 363.039C781.896 347.109 787.198 332.138 797.826 318.076C808.455 304.039 822.467 294.748 839.937 290.179C868.768 282.605 899.492 276.521 932.11 271.976C964.728 267.432 1000.4 265.135 1039.08 265.135C1104.31 265.135 1157.81 271.396 1199.54 283.918C1241.25 296.44 1275.78 315.98 1303.1 342.539C1325.87 365.311 1342.16 391.466 1352.03 421.054C1361.87 450.643 1366.82 487.073 1366.82 530.319V760.235ZM1032.24 754.53C1057.28 754.53 1078.34 745.618 1095.4 727.794C1112.47 709.97 1121 685.128 1121 653.242V622.518C1111.13 618.731 1100.12 615.676 1088 613.404C1075.86 611.132 1064.1 609.996 1052.74 609.996C1023.9 609.996 1002.09 617.216 987.298 631.607C972.504 646.022 965.107 663.871 965.107 685.103C965.107 707.118 971.545 724.184 984.445 736.327C997.321 748.471 1013.25 754.53 1032.24 754.53Z" fill="#7678EE"/>
<path d="M1668.41 540.569L1721.91 364.175C1730.24 336.859 1745.99 314.667 1769.14 297.601C1792.27 280.535 1819.38 272.002 1850.51 272.002C1880.86 272.002 1907.8 280.535 1931.33 297.601C1954.83 314.667 1970.76 336.859 1979.12 364.175L2033.75 542.867C2036.78 529.208 2040.59 514.238 2045.13 497.903C2049.68 481.594 2054.42 464.907 2059.35 447.84C2064.27 430.774 2068.84 414.263 2073.01 398.333C2077.17 382.403 2081.14 367.608 2084.95 353.95C2089.49 329.689 2102.01 310.527 2122.51 296.465C2143.01 282.428 2165.76 275.41 2190.8 275.41C2206.73 275.41 2221.35 278.439 2234.63 284.524C2247.89 290.608 2259.47 298.56 2269.34 308.432C2279.19 318.303 2286.99 329.689 2292.67 342.564C2298.35 355.465 2301.21 368.744 2301.21 382.403C2301.21 386.215 2300.45 391.895 2298.93 399.469L2296.66 410.855L2180.58 778.463C2172.98 807.294 2156.49 831.379 2131.07 850.717C2105.65 870.056 2076.62 879.725 2044 879.725C2012.87 879.725 1985 870.056 1960.36 850.717C1935.69 831.379 1918.42 807.294 1908.58 778.463L1850.54 596.363L1787.95 779.599C1778.08 808.43 1761.02 832.338 1736.73 851.298C1712.44 870.283 1684.75 879.75 1653.64 879.75C1621.03 879.75 1592.57 870.081 1568.29 850.742C1544 831.404 1526.93 806.94 1517.06 777.327L1403.25 413.152C1400.22 404.038 1398.71 394.571 1398.71 384.7C1398.71 370.284 1401.56 356.652 1407.24 343.726C1412.92 330.825 1420.9 319.262 1431.12 309.012C1441.37 298.762 1453.11 290.633 1466.39 284.549C1479.65 278.49 1494.29 275.435 1510.22 275.435C1534.48 275.435 1556.7 283.413 1576.79 299.343C1596.89 315.273 1610.75 334.258 1618.32 356.248L1668.41 540.569Z" fill="#7678EE"/>
<path d="M2933.95 182.075C2949.12 157.814 2969.8 138.45 2995.98 124.034C3022.16 109.619 3050.41 102.398 3080.75 102.398C3104.26 102.398 3126.65 106.766 3147.91 115.476C3169.14 124.211 3187.54 136.152 3203.09 151.325C3218.65 166.523 3230.99 184.145 3240.08 204.241C3249.19 224.362 3253.74 245.771 3253.74 268.543V749.935C3253.74 766.623 3250.33 782.376 3243.49 797.17C3236.65 811.965 3227.56 824.865 3216.17 835.872C3204.79 846.88 3191.3 855.615 3175.78 862.053C3160.23 868.516 3143.72 871.722 3126.27 871.722C3108.07 871.722 3091.18 868.516 3075.63 862.053C3060.08 855.615 3046.59 846.88 3035.23 835.872C3023.85 824.89 3014.76 811.965 3007.92 797.17C3001.08 782.376 2997.67 766.648 2997.67 749.935V471.168C2980.9 495.454 2964.54 519.363 2948.59 542.867C2934.91 562.609 2920.62 583.462 2905.77 605.452C2890.93 627.466 2878.18 646.805 2867.55 663.492C2860.68 674.121 2851.57 682.477 2840.16 688.536C2828.75 694.621 2815.82 697.65 2801.35 697.65C2773.18 697.65 2751.11 686.668 2735.16 664.654L2605.04 491.668V752.283C2605.04 768.97 2601.83 784.547 2595.4 798.937C2588.98 813.353 2580.1 826.077 2568.79 837.059C2557.45 848.066 2544.05 856.6 2528.57 862.659C2513.07 868.743 2496.66 871.772 2479.29 871.772C2461.92 871.772 2445.69 868.743 2430.57 862.659C2415.44 856.6 2402.24 848.243 2390.9 837.614C2379.57 826.986 2370.71 814.489 2364.29 800.048C2357.88 785.633 2354.68 770.081 2354.68 753.394V268.593C2354.68 245.821 2359.22 224.211 2368.33 203.736C2377.45 183.262 2389.97 165.615 2405.9 150.82C2421.83 136.026 2440.21 124.261 2461.09 115.552C2481.94 106.842 2504.13 102.474 2527.66 102.474C2555.73 102.474 2583.23 109.493 2610.17 123.529C2637.08 137.566 2658.54 157.107 2674.47 182.151L2804.21 386.997C2805.72 383.968 2807.99 380.181 2811.05 375.611C2813.32 371.824 2816.17 367.28 2819.58 361.953C2822.99 356.652 2826.98 350.189 2831.52 342.615L2933.95 182.075Z" fill="#7678EE"/>
<path d="M3795.47 683.967C3801.53 680.937 3808.17 678.842 3815.39 677.706C3822.58 676.57 3829.22 675.989 3835.31 675.989C3847.43 675.989 3859.19 678.463 3870.58 683.386C3881.96 688.334 3891.81 696.11 3900.16 706.714C3905.47 714.313 3910.01 722.467 3913.82 731.177C3917.61 739.912 3919.5 748.445 3919.5 756.776C3919.5 768.162 3916.65 779.548 3910.97 790.909C3905.29 802.27 3897.11 812.166 3886.51 820.498C3859.19 840.24 3827.71 855.968 3792.04 867.733C3756.36 879.497 3715.01 885.38 3667.98 885.38C3616.37 885.38 3569.72 877.983 3527.99 863.189C3486.26 848.394 3450.2 827.541 3419.86 800.604C3389.51 773.691 3366.19 741.25 3349.88 703.305C3333.54 665.386 3325.41 623.275 3325.41 576.974C3325.41 531.455 3333.39 489.547 3349.32 451.223C3365.25 412.925 3387.44 379.524 3415.89 351.072C3444.35 322.62 3478.1 300.428 3517.18 284.498C3556.26 268.568 3598.93 260.59 3645.2 260.59C3689.21 260.59 3728.67 266.094 3763.56 277.101C3798.45 288.108 3828.62 303.483 3854.04 323.2C3879.46 342.943 3900.7 366.447 3917.76 393.763C3934.83 421.079 3947.53 451.047 3955.88 483.664C3958.15 494.293 3959.29 503.407 3959.29 510.981C3959.29 526.911 3956.06 541.907 3949.62 555.944C3943.16 569.981 3934.63 582.124 3924.02 592.374C3913.39 602.624 3900.87 610.778 3886.46 616.837C3872.04 622.922 3856.46 625.951 3839.8 625.951H3556.46C3567.07 657.812 3583.96 681.72 3607.11 697.65C3630.26 713.58 3656.62 721.558 3686.2 721.558C3699.86 721.558 3712.76 720.043 3724.91 717.014C3737.02 713.984 3750.68 708.683 3765.88 701.084L3795.47 683.967ZM3743.11 528.072C3739.3 493.94 3728.69 467.759 3711.25 449.532C3693.78 431.329 3672.17 422.216 3646.37 422.216C3622.08 422.216 3601.98 431.708 3586.05 450.668C3570.12 469.653 3559.87 495.454 3555.33 528.047H3743.11V528.072Z" fill="#7678EE"/>
</svg>
