<svg width="64" height="64" viewBox="0 0 64 64" fill="none" xmlns="http://www.w3.org/2000/svg">
  <rect width="64" height="64" rx="12" fill="#7678EE"/>
  <path d="M48.9992 35.1C48.9992 29.5 44.4992 25 38.9992 25C33.4992 25 28.9992 29.5 28.9992 35.1C28.9992 40.2 32.8992 44.5 37.9992 45C38.3992 45 38.6992 45 38.9992 45C44.4992 45 48.9992 40.6 48.9992 35.1Z" fill="white"/>
  <path d="M24.9998 23C24.9998 20.2 22.7998 18 20.1998 18C17.5998 18 15.3998 20.2 15.3998 23C15.3998 25.5 17.0998 27.6 19.3998 28C19.6998 28 19.8998 28 20.1998 28C22.7998 28 24.9998 25.8 24.9998 23Z" fill="white"/>
  <path d="M48.5995 23C48.5995 20.2 46.3995 18 43.7995 18C41.1995 18 38.9995 20.2 38.9995 23C38.9995 25.5 40.6995 27.6 42.9995 28C43.2995 28 43.4995 28 43.7995 28C46.3995 28 48.5995 25.8 48.5995 23Z" fill="white"/>
  <path d="M32.1993 19C32.1993 17.3 30.8993 16 29.2993 16C27.6993 16 26.3993 17.3 26.3993 19C26.3993 20.5 27.3993 21.7 28.7993 22C28.9993 22 29.0993 22 29.2993 22C30.8993 22 32.1993 20.7 32.1993 19Z" fill="white"/>
</svg>
